<?xml version="1.0" encoding="UTF-8" standalone="no"?>
<svg width="23px" height="16px" viewBox="0 0 23 16" version="1.1" xmlns="http://www.w3.org/2000/svg" xmlns:xlink="http://www.w3.org/1999/xlink">
    <!-- Generator: sketchtool 43.1 (39012) - http://www.bohemiancoding.com/sketch -->
    <title>EA291629-A9B5-470E-9D91-96EE18FA48D7</title>
    <desc>Created with sketchtool.</desc>
    <defs></defs>
    <g id="Symbols" stroke="none" stroke-width="1" fill="none" fill-rule="evenodd">
        <g id="MAX.logo" transform="translate(-9.000000, -13.000000)">
            <g id="Group">
                <g id="Group-6">
                    <g id="Group-3">
                        <g id="Group-2" transform="translate(9.470027, 13.563295)">
                            <g id="Group-9">
                                <path d="M20.3472291,11.0943142 C19.6446135,11.0943142 18.5220255,11.1489356 17.1886528,11.3698667 L16.4916263,15.2422766 L19.9304503,15.2422766 L20.6442438,11.0975752 C20.5588121,11.0975752 20.4574119,11.0943142 20.3472291,11.0943142" id="Fill-18" fill="#FFFFFF"></path>
                                <path d="M17.8653993,3.81483594 L17.8614072,3.81483594 C17.7240778,3.81483594 17.3647858,3.86375059 16.9248526,4.29501475 L12.276412,9.02913767 C11.8867798,9.09272672 8.24834907,9.60959152 5.88021532,10.552829 L13.8860404,2.80882463 C16.2853128,0.483748243 18.2175055,0.238359747 18.9448723,0.238359747 L18.9576471,0.238359747 L18.9576471,0.245696944 C19.5572656,0.245696944 20.6718694,0.375320768 21.3641054,1.21828324 C21.9437632,1.91613226 22.1130297,2.97105822 21.8743001,4.34882087 L20.9034131,9.64383178 L17.4582017,9.68948545 L18.4051358,4.58442644 C18.4482509,4.31865684 18.4171122,4.12870494 18.3141152,3.99908112 C18.1815763,3.84255424 17.9779775,3.81483594 17.8653993,3.81483594" id="Fill-19" fill="#FFFFFF"></path>
                                <path d="M20.4976527,9.5120068 C16.7250862,9.5120068 5.53513527,9.51852875 0.0754931252,15.2276837 L5.05448237,15.2276837 C10.9037568,10.1609412 20.1838709,10.1006131 20.5830843,10.1006131 C20.6717097,10.1006131 20.745165,10.1006131 20.8282013,10.113657 L20.9311984,9.5120068 L20.4976527,9.5120068 Z" id="Fill-20" fill="#F7A700"></path>
                            </g>
                        </g>
                    </g>
                </g>
            </g>
        </g>
    </g>
</svg>